<svg width="24" height="24" viewBox="0 0 24 24" fill="none" xmlns="http://www.w3.org/2000/svg">
<path fill-rule="evenodd" clip-rule="evenodd" d="M2.94582 4.61082L9.42957 11.0974C10.8437 12.5088 13.1553 12.51 14.5706 11.0974L21.0543 4.61082C21.1196 4.54553 21.1101 4.438 21.0344 4.38517C20.3731 3.92397 19.5684 3.65054 18.7017 3.65054H5.29848C4.43171 3.65054 3.6271 3.92401 2.96579 4.38517C2.89004 4.438 2.88053 4.54553 2.94582 4.61082ZM1.21313 7.73584C1.21313 7.05428 1.38212 6.41031 1.67978 5.84429C1.72632 5.75575 1.84431 5.73784 1.91504 5.80857L8.31671 12.2102C10.3439 14.2404 13.6551 14.2416 15.6835 12.2102L22.0852 5.80857C22.1559 5.73784 22.2739 5.75575 22.3204 5.84429C22.618 6.41031 22.7871 7.05432 22.7871 7.73584V16.2641C22.7871 18.5185 20.9533 20.3495 18.7017 20.3495H5.29848C3.04698 20.3495 1.21313 18.5185 1.21313 16.2641V7.73584Z" fill="#2F4F4F"/>
</svg>
