<svg width="40" height="40" viewBox="0 0 40 40" fill="none" xmlns="http://www.w3.org/2000/svg">
<path d="M37.0557 24.5358V15.6201C37.0557 14.9571 36.7923 14.3212 36.3235 13.8523C35.8546 13.3835 35.2187 13.1201 34.5557 13.1201C33.8927 13.1201 33.2568 13.3835 32.7879 13.8523C32.3191 14.3212 32.0557 14.9571 32.0557 15.6201V19.9915C31.5489 19.7045 30.9521 19.6206 30.3858 19.757C29.8196 19.8933 29.3263 20.2396 29.0057 20.7258L26.4657 24.543L25.9257 24.733C24.577 25.2156 23.4462 26.1659 22.7384 27.4112C22.0307 28.6566 21.793 30.1145 22.0686 31.5201L22.2657 32.4973C22.171 32.5599 22.0929 32.6447 22.0381 32.7442C21.9834 32.8438 21.9536 32.9551 21.9514 33.0687V37.143C21.9514 37.3324 22.0267 37.5141 22.1606 37.6481C22.2946 37.782 22.4763 37.8573 22.6657 37.8573H31.2957C31.4851 37.8573 31.6668 37.782 31.8008 37.6481C31.9347 37.5141 32.01 37.3324 32.01 37.143V33.0773C32.0086 32.9025 31.9424 32.7346 31.8243 32.6058L36.93 24.9315C37.0102 24.815 37.0539 24.6773 37.0557 24.5358ZM30.5871 36.4287H23.3857V33.7915H30.5871V36.4287ZM30.2857 32.353V32.363H23.7143L23.49 31.243C23.2797 30.1751 23.4596 29.0672 23.997 28.1208C24.5345 27.1744 25.3937 26.4523 26.4186 26.0858L27.1828 25.8144C27.3288 25.7631 27.4541 25.6659 27.54 25.5373L30.21 21.5215C30.3411 21.33 30.5418 21.1971 30.7694 21.1512C30.9969 21.1054 31.2334 21.1501 31.4286 21.2758C31.5273 21.3406 31.6119 21.4245 31.6774 21.5227C31.743 21.6209 31.7881 21.7313 31.81 21.8473C31.8331 21.9622 31.8332 22.0805 31.8104 22.1955C31.7876 22.3105 31.7423 22.4198 31.6771 22.5173L31.5957 22.6401L30.7871 23.8544L28.6128 27.1215C28.5608 27.1996 28.5246 27.2871 28.5064 27.3791C28.4881 27.4712 28.4882 27.5659 28.5066 27.6579C28.525 27.7499 28.5613 27.8374 28.6135 27.9153C28.6656 27.9933 28.7327 28.0602 28.8107 28.1123C28.9683 28.2174 29.1612 28.2556 29.347 28.2185C29.439 28.2001 29.5265 28.1638 29.6045 28.1117C29.6824 28.0595 29.7494 27.9924 29.8014 27.9144L32.3971 24.0158L32.8686 23.3015L33.3614 22.5601C33.4396 22.4429 33.4813 22.3053 33.4814 22.1644V15.6258C33.4807 15.4149 33.5427 15.2084 33.6594 15.0327C33.7761 14.857 33.9424 14.7199 34.1371 14.6387C34.2994 14.5703 34.4761 14.5432 34.6514 14.5597C34.8268 14.5762 34.9953 14.6358 35.142 14.7333C35.2887 14.8308 35.4089 14.963 35.4921 15.1182C35.5753 15.2735 35.6187 15.4469 35.6186 15.623V24.3201L30.2857 32.353Z" fill="#2F4F4F"/>
<path d="M17.9257 31.5244C18.2013 30.1187 17.9636 28.6608 17.2559 27.4155C16.5481 26.1701 15.4172 25.2199 14.0686 24.7372L13.5286 24.5472L11 20.7301C10.6786 20.2427 10.1837 19.896 9.61584 19.7604C9.04798 19.6248 8.44981 19.7105 7.94287 20.0001V15.6287C7.94287 15.3004 7.87821 14.9753 7.75257 14.672C7.62693 14.3686 7.44278 14.093 7.21064 13.8609C6.97849 13.6287 6.70289 13.4446 6.39958 13.319C6.09627 13.1933 5.77118 13.1287 5.44287 13.1287C5.11457 13.1287 4.78948 13.1933 4.48616 13.319C4.18285 13.4446 3.90725 13.6287 3.6751 13.8609C3.44296 14.093 3.25881 14.3686 3.13317 14.672C3.00754 14.9753 2.94287 15.3004 2.94287 15.6287V24.5429C2.94298 24.6838 2.98473 24.8215 3.06287 24.9387L8.16859 32.6129C8.05046 32.7417 7.98428 32.9097 7.98287 33.0844V37.143C7.98287 37.3324 8.05813 37.5141 8.19208 37.648C8.32604 37.782 8.50772 37.8572 8.69716 37.8572H17.3286C17.518 37.8572 17.6997 37.782 17.8337 37.648C17.9676 37.5141 18.0429 37.3324 18.0429 37.143V33.0772C18.0407 32.9637 18.0109 32.8523 17.9562 32.7528C17.9014 32.6532 17.8233 32.5685 17.7286 32.5058L17.9257 31.5244ZM4.37287 24.3187V15.6229C4.37242 15.4464 4.41573 15.2724 4.49894 15.1167C4.58215 14.9609 4.70266 14.8282 4.84969 14.7304C4.99673 14.6326 5.1657 14.5728 5.34151 14.5563C5.51732 14.5398 5.69448 14.5671 5.85716 14.6358C6.05216 14.7172 6.21866 14.8545 6.33563 15.0304C6.45259 15.2064 6.51477 15.4131 6.5143 15.6244V22.1629C6.51441 22.3038 6.55616 22.4415 6.6343 22.5587L10.1957 27.9101C10.2478 27.9881 10.3147 28.0552 10.3927 28.1073C10.4706 28.1595 10.5581 28.1958 10.6501 28.2142C10.7421 28.2326 10.8368 28.2326 10.9288 28.2144C11.0209 28.1962 11.1084 28.16 11.1864 28.108C11.2645 28.0559 11.3315 27.989 11.3837 27.911C11.4359 27.833 11.4722 27.7456 11.4906 27.6536C11.5089 27.5616 11.509 27.4669 11.4908 27.3748C11.4725 27.2828 11.4364 27.1953 11.3843 27.1172L9.20859 23.8572L8.31859 22.5201C8.25204 22.4221 8.20574 22.3119 8.18242 22.1958C8.1591 22.0797 8.15922 21.9601 8.18278 21.844C8.20633 21.7279 8.25285 21.6178 8.3196 21.5199C8.38634 21.4221 8.47197 21.3386 8.57144 21.2744C8.76855 21.1449 9.00836 21.0972 9.24001 21.1415C9.3557 21.1638 9.46579 21.2089 9.56389 21.2741C9.66199 21.3394 9.74614 21.4235 9.81144 21.5215L12.4829 25.5372C12.5688 25.6658 12.6941 25.7631 12.84 25.8144L13.6057 26.0858C14.6303 26.4525 15.4892 27.1747 16.0264 28.1211C16.5636 29.0675 16.7433 30.1753 16.5329 31.243L16.3086 32.3629H9.73716V32.3529L4.37287 24.3187ZM16.6143 36.4287H9.41287V33.7915H16.6143V36.4287Z" fill="#2F4F4F"/>
<path d="M29.2857 13.1743V6.55433C29.2859 6.41517 29.2454 6.27898 29.1693 6.16249C29.0932 6.046 28.9846 5.95429 28.8571 5.89862L20.2857 2.20148C20.1956 2.16215 20.0983 2.14185 20 2.14185C19.9016 2.14185 19.8044 2.16215 19.7142 2.20148L11.1428 5.89862C11.0153 5.95429 10.9068 6.046 10.8306 6.16249C10.7545 6.27898 10.714 6.41517 10.7142 6.55433V13.1743C10.7123 14.5214 11.0075 15.8523 11.5789 17.0721C12.1503 18.292 12.9838 19.3707 14.02 20.2315L19.5428 24.8343C19.6712 24.9412 19.8329 24.9998 20 24.9998C20.167 24.9998 20.3288 24.9412 20.4571 24.8343L25.98 20.2315C27.0161 19.3707 27.8496 18.292 28.421 17.0721C28.9924 15.8523 29.2876 14.5214 29.2857 13.1743ZM25.0642 19.1429L20 23.3572L14.9342 19.1429C14.0585 18.4146 13.3543 17.5021 12.8718 16.4704C12.3893 15.4387 12.1404 14.3133 12.1428 13.1743V7.03148L20 3.63576L27.8571 7.02433V13.1743C27.8596 14.3134 27.6106 15.4391 27.1279 16.4708C26.6451 17.5026 25.9404 18.415 25.0642 19.1429Z" fill="#2F4F4F"/>
<path d="M22.7143 9.49439L18.9286 13.2758L17.2857 11.6372C17.2193 11.5708 17.1405 11.5182 17.0537 11.4822C16.9669 11.4463 16.8739 11.4278 16.78 11.4278C16.6861 11.4278 16.5931 11.4463 16.5063 11.4822C16.4195 11.5182 16.3407 11.5708 16.2743 11.6372C16.2079 11.7037 16.1552 11.7825 16.1193 11.8693C16.0833 11.956 16.0648 12.049 16.0648 12.143C16.0648 12.2369 16.0833 12.3299 16.1193 12.4166C16.1552 12.5034 16.2079 12.5823 16.2743 12.6487L18.4172 14.7915C18.4835 14.858 18.5623 14.9108 18.6491 14.9468C18.7359 14.9828 18.8289 15.0014 18.9229 15.0014C19.0168 15.0014 19.1098 14.9828 19.1966 14.9468C19.2834 14.9108 19.3622 14.858 19.4286 14.7915L23.7143 10.5058C23.8484 10.3717 23.9238 10.1898 23.9238 10.0001C23.9238 9.81042 23.8484 9.62851 23.7143 9.49439C23.5802 9.36026 23.3983 9.28491 23.2086 9.28491C23.0189 9.28491 22.837 9.36026 22.7029 9.49439H22.7143Z" fill="#2F4F4F"/>
</svg>
