<svg width="50" height="50" viewBox="0 0 50 50" fill="none" xmlns="http://www.w3.org/2000/svg">
<path d="M22.9305 30.4688H10.9375C10.5055 30.4688 10.1562 30.1187 10.1562 29.6875C10.1562 29.2563 10.5055 28.9062 10.9375 28.9062H22.9305C23.3625 28.9062 23.7117 29.2563 23.7117 29.6875C23.7117 30.1187 23.3617 30.4688 22.9305 30.4688Z" fill="#2F4F4F"/>
<path d="M22.9305 21.0938H10.9375C10.5055 21.0938 10.1562 20.7437 10.1562 20.3125C10.1562 19.8813 10.5055 19.5312 10.9375 19.5312H22.9305C23.3625 19.5312 23.7117 19.8813 23.7117 20.3125C23.7117 20.7437 23.3617 21.0938 22.9305 21.0938Z" fill="#2F4F4F"/>
<path d="M21.875 25.7812H6.25C5.81797 25.7812 5.46875 25.4312 5.46875 25C5.46875 24.5688 5.81797 24.2188 6.25 24.2188H21.875C22.307 24.2188 22.6562 24.5688 22.6562 25C22.6562 25.4312 22.307 25.7812 21.875 25.7812Z" fill="#2F4F4F"/>
<path d="M29.6875 28.0485C28.1352 28.0485 26.5625 27.0017 26.5625 25.0001C26.5625 22.9985 28.1352 21.9517 29.6875 21.9517C31.2398 21.9517 32.8125 22.9985 32.8125 25.0001C32.8125 27.0017 31.2398 28.0485 29.6875 28.0485ZM29.6875 23.5142C28.9664 23.5142 28.125 23.9032 28.125 25.0001C28.125 26.097 28.9664 26.486 29.6875 26.486C30.4086 26.486 31.25 26.097 31.25 25.0001C31.25 23.9032 30.4086 23.5142 29.6875 23.5142Z" fill="#2F4F4F"/>
<path d="M31.3445 24.1242C31.1445 24.1242 30.9445 24.0476 30.7922 23.8953C30.4867 23.5898 30.4867 23.0961 30.7922 22.7906L35.2117 18.3711C35.5171 18.0656 36.0109 18.0656 36.3164 18.3711C36.6218 18.6765 36.6218 19.1703 36.3164 19.4758L31.8968 23.8953C31.7445 24.0476 31.5445 24.1242 31.3445 24.1242Z" fill="#2F4F4F"/>
<path d="M26.9258 28.5437C26.7258 28.5437 26.5258 28.4671 26.3734 28.3147C26.068 28.0101 26.068 27.5155 26.3734 27.2101L27.4781 26.1046C27.7836 25.7991 28.2774 25.7991 28.5828 26.1046C28.8883 26.4093 28.8883 26.9038 28.5828 27.2093L27.4781 28.3147C27.3258 28.4671 27.1258 28.5437 26.9258 28.5437Z" fill="#2F4F4F"/>
<path d="M29.6875 39.8438C29.2555 39.8438 28.9062 39.4938 28.9062 39.0625V36.7188C28.9062 36.2875 29.2555 35.9375 29.6875 35.9375C30.1195 35.9375 30.4688 36.2875 30.4688 36.7188V39.0625C30.4688 39.4938 30.1195 39.8438 29.6875 39.8438Z" fill="#2F4F4F"/>
<path d="M39.6312 35.7249C39.4312 35.7249 39.2312 35.6483 39.0789 35.496L37.4219 33.8382C37.1164 33.5327 37.1164 33.0382 37.4219 32.7335C37.7273 32.428 38.2211 32.428 38.5265 32.7335L40.1836 34.3913C40.489 34.6968 40.489 35.1913 40.1836 35.496C40.0304 35.6483 39.8304 35.7249 39.6312 35.7249Z" fill="#2F4F4F"/>
<path d="M37.9735 17.4953C37.7735 17.4953 37.5735 17.4187 37.4211 17.2664C37.1156 16.9617 37.1156 16.4672 37.4211 16.1617L39.0782 14.5039C39.3836 14.1984 39.8774 14.1984 40.1828 14.5039C40.4883 14.8086 40.4883 15.3031 40.1828 15.6086L38.5258 17.2664C38.3735 17.4187 38.1735 17.4953 37.9735 17.4953Z" fill="#2F4F4F"/>
<path d="M29.6875 14.0625C29.2555 14.0625 28.9062 13.7125 28.9062 13.2812V10.9375C28.9062 10.5063 29.2555 10.1562 29.6875 10.1562C30.1195 10.1562 30.4688 10.5063 30.4688 10.9375V13.2812C30.4688 13.7125 30.1195 14.0625 29.6875 14.0625Z" fill="#2F4F4F"/>
<path d="M43.75 25.7812H41.4062C40.9742 25.7812 40.625 25.4312 40.625 25C40.625 24.5688 40.9742 24.2188 41.4062 24.2188H43.75C44.182 24.2188 44.5312 24.5688 44.5312 25C44.5312 25.4312 44.182 25.7812 43.75 25.7812Z" fill="#2F4F4F"/>
<path d="M24.0539 16.4062H15.625C15.193 16.4062 14.8438 16.0562 14.8438 15.625C14.8438 15.1938 15.193 14.8438 15.625 14.8438H24.0539C24.4859 14.8438 24.8352 15.1938 24.8352 15.625C24.8352 16.0562 24.4859 16.4062 24.0539 16.4062Z" fill="#2F4F4F"/>
<path d="M24.0539 35.1562H15.625C15.193 35.1562 14.8438 34.8062 14.8438 34.375C14.8438 33.9438 15.193 33.5938 15.625 33.5938H24.0539C24.4859 33.5938 24.8352 33.9438 24.8352 34.375C24.8352 34.8062 24.4859 35.1562 24.0539 35.1562Z" fill="#2F4F4F"/>
<path d="M29.639 39.829C27.3492 39.829 25.0359 39.3016 22.8875 38.1946C22.5039 37.9969 22.3531 37.5258 22.5508 37.1422C22.7484 36.7586 23.2203 36.6079 23.6031 36.8055C29.7312 39.9633 37.3648 37.8477 40.982 31.9891C44.6094 26.1133 43.0914 18.3329 37.5265 14.2758C33.4961 11.3383 28.0305 10.9133 23.6031 13.1938C23.2203 13.3915 22.7484 13.2415 22.5508 12.8571C22.3531 12.4735 22.5031 12.0024 22.8875 11.8047C27.8351 9.25474 33.9414 9.72896 38.4469 13.0126C44.6672 17.5469 46.3648 26.243 42.3109 32.8094C39.5367 37.3047 34.6469 39.829 29.639 39.829Z" fill="#2F4F4F"/>
</svg>
