<svg width="19" height="15" viewBox="0 0 19 15" fill="none" xmlns="http://www.w3.org/2000/svg">
<path d="M14.6019 0.75428L7.22459 8.13021L4.39813 5.30375C3.91463 4.82097 3.2593 4.54981 2.57604 4.54981C1.89277 4.54981 1.23744 4.82097 0.753941 5.30375C0.271162 5.78725 0 6.44258 0 7.12585C0 7.80911 0.271162 8.46444 0.753941 8.94794L5.24166 13.4357C5.28984 13.4933 5.34074 13.5497 5.39503 13.604C5.88113 14.0873 6.53876 14.3586 7.22425 14.3586C7.90974 14.3586 8.56737 14.0873 9.05347 13.604C9.10776 13.5497 9.15865 13.4933 9.20684 13.4357L18.2461 4.39779C18.7288 3.91429 19 3.25896 19 2.5757C19 1.89243 18.7288 1.2371 18.2461 0.753602C17.7625 0.270913 17.1071 -0.000127192 16.4238 4.47773e-08C15.7406 0.000127282 15.0853 0.271411 14.6019 0.75428Z" fill="white"/>
</svg>
