<svg width="40" height="40" viewBox="0 0 40 40" fill="none" xmlns="http://www.w3.org/2000/svg">
<path d="M29.6875 13.8051C29.1473 11.6455 27.901 9.72838 26.1467 8.35805C24.3923 6.98771 22.2305 6.24275 20.0044 6.24146C17.7783 6.24016 15.6156 6.98261 13.8597 8.35091C12.1037 9.71921 10.8553 11.6349 10.3125 13.7938C7.7523 14.0341 5.38304 15.2514 3.69688 17.1929C2.01071 19.1343 1.13724 21.6507 1.25791 24.2193C1.37858 26.788 2.48411 29.2114 4.34486 30.9862C6.20561 32.7611 8.67855 33.7509 11.25 33.7501H15C15.3315 33.7501 15.6495 33.6184 15.8839 33.384C16.1183 33.1495 16.25 32.8316 16.25 32.5001C16.25 32.1686 16.1183 31.8506 15.8839 31.6162C15.6495 31.3818 15.3315 31.2501 15 31.2501H11.25C10.2651 31.253 9.28926 31.0618 8.37822 30.6875C7.46718 30.3133 6.63877 29.7633 5.9403 29.0688C4.52968 27.6664 3.73394 25.7611 3.72814 23.772C3.72233 21.7828 4.50695 19.8729 5.90937 18.4622C7.31179 17.0516 9.21714 16.2559 11.2063 16.2501C11.527 16.2742 11.8453 16.1784 12.0993 15.9811C12.3534 15.7839 12.5252 15.4993 12.5813 15.1826C12.8358 13.3977 13.7257 11.7645 15.0877 10.583C16.4496 9.40151 18.192 8.75104 19.995 8.75104C21.798 8.75104 23.5404 9.40151 24.9024 10.583C26.2643 11.7645 27.1542 13.3977 27.4088 15.1826C27.4741 15.4883 27.6436 15.7618 27.8882 15.9565C28.1328 16.1512 28.4374 16.255 28.75 16.2501C30.7391 16.2501 32.6468 17.0403 34.0533 18.4468C35.4598 19.8533 36.25 21.761 36.25 23.7501C36.25 25.7392 35.4598 27.6469 34.0533 29.0534C32.6468 30.4599 30.7391 31.2501 28.75 31.2501H25C24.6685 31.2501 24.3505 31.3818 24.1161 31.6162C23.8817 31.8506 23.75 32.1686 23.75 32.5001C23.75 32.8316 23.8817 33.1495 24.1161 33.384C24.3505 33.6184 24.6685 33.7501 25 33.7501H28.75C31.3027 33.7234 33.7484 32.7214 35.5862 30.9496C37.4239 29.1777 38.5145 26.7701 38.6343 24.2202C38.7542 21.6702 37.8943 19.1709 36.2309 17.2345C34.5674 15.2981 32.2264 14.0711 29.6875 13.8051Z" fill="#666666"/>
<path d="M25.3663 24.6337C25.602 24.8614 25.9178 24.9874 26.2455 24.9846C26.5733 24.9817 26.8868 24.8503 27.1185 24.6185C27.3503 24.3867 27.4818 24.0732 27.4846 23.7455C27.4875 23.4177 27.3615 23.102 27.1338 22.8662L20.8838 16.6162C20.6494 16.3819 20.3315 16.2502 20 16.2502C19.6686 16.2502 19.3507 16.3819 19.1163 16.6162L12.8663 22.8662C12.6386 23.102 12.5126 23.4177 12.5154 23.7455C12.5183 24.0732 12.6497 24.3867 12.8815 24.6185C13.1133 24.8503 13.4268 24.9817 13.7545 24.9846C14.0823 24.9874 14.398 24.8614 14.6338 24.6337L18.75 20.5175V36.25C18.75 36.5815 18.8817 36.8994 19.1161 37.1339C19.3506 37.3683 19.6685 37.5 20 37.5C20.3315 37.5 20.6495 37.3683 20.8839 37.1339C21.1183 36.8994 21.25 36.5815 21.25 36.25V20.5175L25.3663 24.6337Z" fill="#666666"/>
</svg>
