<svg width="40" height="40" viewBox="0 0 40 40" fill="none" xmlns="http://www.w3.org/2000/svg">
<path d="M26.25 16.25C26.5815 16.25 26.8995 16.1183 27.1339 15.8839C27.3683 15.6495 27.5 15.3315 27.5 15V13.9673C27.4964 12.2925 26.8428 10.6845 25.6769 9.48214C24.511 8.27981 22.9239 7.57707 21.25 7.522V5C21.25 4.66848 21.1183 4.35054 20.8839 4.11612C20.6495 3.8817 20.3315 3.75 20 3.75C19.6685 3.75 19.3505 3.8817 19.1161 4.11612C18.8817 4.35054 18.75 4.66848 18.75 5V7.522C17.2673 7.56924 15.8461 8.12565 14.7255 9.09763C13.6049 10.0696 12.8531 11.3979 12.5968 12.859C12.3404 14.3201 12.595 15.8249 13.3178 17.1204C14.0406 18.4158 15.1875 19.4228 16.5655 19.972L22.5061 22.3494C23.3621 22.6918 24.0721 23.3217 24.5141 24.1308C24.956 24.9399 25.1024 25.8777 24.9281 26.783C24.7537 27.6883 24.2695 28.5046 23.5587 29.0917C22.8478 29.6788 21.9547 29.9999 21.0328 30H18.9673C17.9154 29.9988 16.907 29.5804 16.1633 28.8367C15.4196 28.093 15.0012 27.0846 15 26.0328V25C15 24.6685 14.8683 24.3505 14.6339 24.1161C14.3995 23.8817 14.0815 23.75 13.75 23.75C13.4185 23.75 13.1005 23.8817 12.8661 24.1161C12.6317 24.3505 12.5 24.6685 12.5 25V26.0328C12.5036 27.7075 13.1572 29.3155 14.3231 30.5179C15.489 31.7202 17.0761 32.4229 18.75 32.478V35C18.75 35.3315 18.8817 35.6495 19.1161 35.8839C19.3505 36.1183 19.6685 36.25 20 36.25C20.3315 36.25 20.6495 36.1183 20.8839 35.8839C21.1183 35.6495 21.25 35.3315 21.25 35V32.478C22.7327 32.4308 24.1539 31.8743 25.2745 30.9024C26.3952 29.9304 27.1469 28.6021 27.4033 27.141C27.6596 25.6799 27.405 24.1751 26.6822 22.8796C25.9594 21.5842 24.8125 20.5772 23.4345 20.028L17.4939 17.6506C16.6379 17.3082 15.9279 16.6783 15.486 15.8692C15.044 15.0601 14.8976 14.1223 15.0719 13.217C15.2463 12.3117 15.7305 11.4954 16.4413 10.9083C17.1522 10.3212 18.0453 10.0001 18.9673 10H21.0328C22.0846 10.0012 23.093 10.4195 23.8367 11.1633C24.5805 11.907 24.9988 12.9154 25 13.9673V15C25 15.3315 25.1317 15.6495 25.3661 15.8839C25.6005 16.1183 25.9185 16.25 26.25 16.25Z" fill="#2F4F4F"/>
</svg>
